<?xml version="1.0" encoding="utf-8"?>
<!-- Generator: Circuit Diagram, cdlibrary.dll 4.0.0.0 -->
<!DOCTYPE svg PUBLIC "-//W3C//DTD SVG 1.1//EN" "http://www.w3.org/Graphics/SVG/1.1/DTD/svg11.dtd">
<svg version="1.1" width="440" height="240" xmlns="http://www.w3.org/2000/svg">
	<line x1="160" y1="210" x2="420" y2="210" style="stroke:rgb(0, 0, 0);stroke-linecap:square;stroke-width:2" />
	<line x1="420" y1="180" x2="420" y2="210" style="stroke:rgb(0, 0, 0);stroke-linecap:square;stroke-width:2" />
	<line x1="20" y1="110" x2="130" y2="110" style="stroke:rgb(0, 0, 0);stroke-linecap:square;stroke-width:2" />
	<line x1="20" y1="110" x2="20" y2="210" style="stroke:rgb(0, 0, 0);stroke-linecap:square;stroke-width:2" />
	<line x1="20" y1="210" x2="160" y2="210" style="stroke:rgb(0, 0, 0);stroke-linecap:square;stroke-width:2" />
	<line x1="160" y1="180" x2="160" y2="210" style="stroke:rgb(0, 0, 0);stroke-linecap:square;stroke-width:2" />
	<line x1="130" y1="60" x2="140" y2="60" style="stroke:rgb(0, 0, 0);stroke-linecap:square;stroke-width:2" />
	<line x1="130" y1="60" x2="130" y2="110" style="stroke:rgb(0, 0, 0);stroke-linecap:square;stroke-width:2" />
	<line x1="230" y1="60" x2="250" y2="60" style="stroke:rgba(255, 0, 0, 255);stroke-linecap:square;stroke-width:2" />
	<line x1="250" y1="60" x2="250" y2="110" style="stroke:rgba(255, 0, 0, 255);stroke-linecap:square;stroke-width:2" />
	<line x1="30" y1="120" x2="130" y2="120" style="stroke:rgba(100, 149, 237, 255);stroke-linecap:square;stroke-width:2" />
	<line x1="30" y1="120" x2="30" y2="180" style="stroke:rgba(100, 149, 237, 255);stroke-linecap:square;stroke-width:2" />
	<line x1="30" y1="180" x2="40" y2="180" style="stroke:rgba(100, 149, 237, 255);stroke-linecap:square;stroke-width:2" />
	<line x1="40" y1="130" x2="40" y2="170" style="stroke:rgba(100, 149, 237, 255);stroke-linecap:square;stroke-width:2" />
	<line x1="40" y1="130" x2="130" y2="130" style="stroke:rgba(100, 149, 237, 255);stroke-linecap:square;stroke-width:2" />
	<line x1="160" y1="170" x2="250" y2="170" style="stroke:rgba(255, 0, 0, 255);stroke-linecap:square;stroke-width:2" />
	<line x1="300" y1="120" x2="300" y2="170" style="stroke:rgba(100, 149, 237, 255);stroke-linecap:square;stroke-width:2" />
	<line x1="250" y1="120" x2="300" y2="120" style="stroke:rgba(100, 149, 237, 255);stroke-linecap:square;stroke-width:2" />
	<line x1="250" y1="130" x2="250" y2="180" style="stroke:rgba(255, 0, 0, 255);stroke-linecap:square;stroke-width:2" />
	<text x="190" y="90" style="font-family:Arial;font-size:11px;text-anchor:middle" dominant-baseline="middle" transform="rotate(0, 190, 90)">ESP32</text>
	<rect x="140" y="100" width="100" height="40" style="fill-opacity:0;fill:rgb(0, 0, 0);stroke:rgb(0, 0, 0);stroke-width:2" />
	<line x1="130" y1="110" x2="140" y2="110" style="stroke:rgb(0, 0, 0);stroke-linecap:square;stroke-width:2" />
	<text x="144" y="110" style="font-family:Arial;font-size:11px;text-anchor:start" dominant-baseline="middle" transform="rotate(0, 144, 110)">GND</text>
	<line x1="240" y1="110" x2="250" y2="110" style="stroke:rgb(0, 0, 0);stroke-linecap:square;stroke-width:2" />
	<text x="236" y="110" style="font-family:Arial;font-size:11px;text-anchor:end" dominant-baseline="middle" transform="rotate(0, 236, 110)">GPIO 13</text>
	<line x1="130" y1="120" x2="140" y2="120" style="stroke:rgb(0, 0, 0);stroke-linecap:square;stroke-width:2" />
	<text x="144" y="120" style="font-family:Arial;font-size:11px;text-anchor:start" dominant-baseline="middle" transform="rotate(0, 144, 120)">GPIO 21</text>
	<line x1="240" y1="120" x2="250" y2="120" style="stroke:rgb(0, 0, 0);stroke-linecap:square;stroke-width:2" />
	<text x="236" y="120" style="font-family:Arial;font-size:11px;text-anchor:end" dominant-baseline="middle" transform="rotate(0, 236, 120)">GPIO 14</text>
	<line x1="130" y1="130" x2="140" y2="130" style="stroke:rgb(0, 0, 0);stroke-linecap:square;stroke-width:2" />
	<text x="144" y="130" style="font-family:Arial;font-size:11px;text-anchor:start" dominant-baseline="middle" transform="rotate(0, 144, 130)">GPIO 22</text>
	<line x1="240" y1="130" x2="250" y2="130" style="stroke:rgb(0, 0, 0);stroke-linecap:square;stroke-width:2" />
	<text x="236" y="130" style="font-family:Arial;font-size:11px;text-anchor:end" dominant-baseline="middle" transform="rotate(0, 236, 130)">3.3V</text>
	<text x="100" y="150" style="font-family:Arial;font-size:11px;text-anchor:middle" dominant-baseline="middle" transform="rotate(0, 100, 150)">mpu9250</text>
	<rect x="50" y="160" width="100" height="30" style="fill-opacity:0;fill:rgb(0, 0, 0);stroke:rgb(0, 0, 0);stroke-width:2" />
	<line x1="40" y1="170" x2="50" y2="170" style="stroke:rgb(0, 0, 0);stroke-linecap:square;stroke-width:2" />
	<text x="54" y="170" style="font-family:Arial;font-size:11px;text-anchor:start" dominant-baseline="middle" transform="rotate(0, 54, 170)">SCL</text>
	<line x1="150" y1="170" x2="160" y2="170" style="stroke:rgb(0, 0, 0);stroke-linecap:square;stroke-width:2" />
	<text x="146" y="170" style="font-family:Arial;font-size:11px;text-anchor:end" dominant-baseline="middle" transform="rotate(0, 146, 170)">VCC</text>
	<line x1="40" y1="180" x2="50" y2="180" style="stroke:rgb(0, 0, 0);stroke-linecap:square;stroke-width:2" />
	<text x="54" y="180" style="font-family:Arial;font-size:11px;text-anchor:start" dominant-baseline="middle" transform="rotate(0, 54, 180)">SDA</text>
	<line x1="150" y1="180" x2="160" y2="180" style="stroke:rgb(0, 0, 0);stroke-linecap:square;stroke-width:2" />
	<text x="146" y="180" style="font-family:Arial;font-size:11px;text-anchor:end" dominant-baseline="middle" transform="rotate(0, 146, 180)">GND</text>
	<text x="360" y="150" style="font-family:Arial;font-size:11px;text-anchor:middle" dominant-baseline="middle" transform="rotate(0, 360, 150)">button</text>
	<rect x="310" y="160" width="100" height="30" style="fill-opacity:0;fill:rgb(0, 0, 0);stroke:rgb(0, 0, 0);stroke-width:2" />
	<line x1="300" y1="170" x2="310" y2="170" style="stroke:rgb(0, 0, 0);stroke-linecap:square;stroke-width:2" />
	<text x="314" y="170" style="font-family:Arial;font-size:11px;text-anchor:start" dominant-baseline="middle" transform="rotate(0, 314, 170)">IN</text>
	<line x1="300" y1="180" x2="310" y2="180" style="stroke:rgb(0, 0, 0);stroke-linecap:square;stroke-width:2" />
	<text x="314" y="180" style="font-family:Arial;font-size:11px;text-anchor:start" dominant-baseline="middle" transform="rotate(0, 314, 180)">IN</text>
	<line x1="410" y1="180" x2="420" y2="180" style="stroke:rgb(0, 0, 0);stroke-linecap:square;stroke-width:2" />
	<text x="406" y="180" style="font-family:Arial;font-size:11px;text-anchor:end" dominant-baseline="middle" transform="rotate(0, 406, 180)">OUT</text>
	<line x1="250" y1="180" x2="255" y2="180" style="stroke:rgba(255, 0, 0, 255);stroke-linecap:square;stroke-width:2" />
	<line x1="295" y1="180" x2="300" y2="180" style="stroke:rgba(255, 0, 0, 255);stroke-linecap:square;stroke-width:2" />
	<path d="M 255,180 L 257,180 L 260,173 L 266,187 L 272,173 L 278,187 L 284,173 L 290,187 L 293,180 L 295,180" style="fill-opacity:0;fill:rgba(255, 0, 0, 255);stroke:rgba(255, 0, 0, 255);stroke-linecap:square;stroke-width:2" />
	<text x="275" y="166" style="fill: rgba(255, 0, 0, 255);font-family:Arial;font-size:11px;text-anchor:middle" dominant-baseline="baseline" transform="rotate(0, 275, 166)">10 kΩ</text>
	<line x1="180" y1="60" x2="185" y2="60" style="stroke:rgba(255, 0, 0, 255);stroke-linecap:square;stroke-width:2" />
	<line x1="225" y1="60" x2="230" y2="60" style="stroke:rgba(255, 0, 0, 255);stroke-linecap:square;stroke-width:2" />
	<path d="M 185,60 L 187,60 L 190,53 L 196,67 L 202,53 L 208,67 L 214,53 L 220,67 L 223,60 L 225,60" style="fill-opacity:0;fill:rgba(255, 0, 0, 255);stroke:rgba(255, 0, 0, 255);stroke-linecap:square;stroke-width:2" />
	<text x="205" y="46" style="fill: rgba(255, 0, 0, 255);font-family:Arial;font-size:11px;text-anchor:middle" dominant-baseline="baseline" transform="rotate(0, 205, 46)">200 Ω</text>
	<line x1="140" y1="60" x2="148" y2="60" style="stroke:rgb(0, 0, 0);stroke-linecap:square;stroke-width:2" />
	<line x1="172" y1="60" x2="180" y2="60" style="stroke:rgb(0, 0, 0);stroke-linecap:square;stroke-width:2" />
	<ellipse cx="160" cy="60" rx="12" ry="12" style="fill-opacity:0;fill:rgb(0, 0, 0);stroke:rgb(0, 0, 0);stroke-width:2" />
	<line x1="152" y1="52" x2="168" y2="68" style="stroke:rgb(0, 0, 0);stroke-linecap:square;stroke-width:2" />
	<line x1="152" y1="68" x2="168" y2="52" style="stroke:rgb(0, 0, 0);stroke-linecap:square;stroke-width:2" />
	<ellipse cx="160" cy="210" rx="2" ry="2" style="fill-opacity:1;fill:rgb(0, 0, 0);stroke:rgb(0, 0, 0);stroke-width:2" />
	<ellipse cx="130" cy="110" rx="2" ry="2" style="fill-opacity:1;fill:rgb(0, 0, 0);stroke:rgb(0, 0, 0);stroke-width:2" />
	<ellipse cx="250" cy="170" rx="2" ry="2" style="fill-opacity:1;fill:rgba(255, 0, 0, 255);stroke:rgba(255, 0, 0, 255);stroke-width:2" />
</svg>